<svg xmlns="http://www.w3.org/2000/svg" id="Calque_1" data-name="Calque 1" viewBox="0 0 373.86 300"><defs><style>.cls-1{fill:#6da843;}.cls-2{fill:#2c63a8;}.cls-3{fill:#fff;}</style></defs><path class="cls-1" d="M250.94,132v12.32H238.36A119,119,0,0,0,250.94,132"></path><path class="cls-1" d="M250.94,70.45V89.57a120.16,120.16,0,0,1-57.53,54.76H173.46a120,120,0,0,0,77.48-73.88"></path><path class="cls-2" d="M119.86,19.13v125.2h13.07q3,0,5.86-.23c1.67-.1,3.32-.24,5-.41q3-.31,6-.78a119.84,119.84,0,0,0,99-95.51q.55-2.84,1-5.72c.31-2.18.57-4.38.76-6.61.15-1.79.27-3.59.35-5.41s.1-3.37.1-5.07V19.13Zm85.67,74.05c-6.72,25-32.77,32.26-32.77,32.26-10.22-15.63-5.51-32.76-4-39.28s7.32-19.93,7.92-22.24,1-12.13,1-12.13L161.54,57.2l.3,3.71,9.31-1.5-12.72,5.31,1,4.71,8.82-1.3-11.62,4.41,1.3,5.91,4.81-.9-7.41,3.6,2.1,7.12-2.71,1.5,3.41,7.52-1.8,1.5,4.2,7.62-1.3,1.4,2.71,4a21.31,21.31,0,0,0,.4,3.6c.4,2.1,5.31,9.72,5.31,9.72-7.42,0-15.13-9.21-15.13-9.21C142.4,103.8,139.49,94.18,141.3,74S157,41.17,161.64,36.46s18.23-6.71,18.23-6.71l6,7.82c6.62,6.91,13,17.53,13,17.53,12,18.24,6.62,38.08,6.62,38.08"></path><path class="cls-1" d="M250.94,105.17v13.74A120.08,120.08,0,0,1,225,144.33H209.85a120.34,120.34,0,0,0,41.09-39.16"></path><path class="cls-3" d="M198.91,55.1s-6.41-10.62-13-17.53l-6-7.82s-13.62,2-18.23,6.71S143.1,53.9,141.3,74s1.1,29.76,11.22,41.89c0,0,7.71,9.21,15.13,9.21,0,0-4.91-7.61-5.31-9.72a21.31,21.31,0,0,1-.4-3.6l-2.71-4,1.3-1.4-4.2-7.62,1.8-1.5-3.41-7.52,2.71-1.5-2.1-7.11,7.41-3.61-4.81.9-1.3-5.91,11.62-4.41-8.82,1.3-1-4.71,12.72-5.31-9.31,1.51-.3-3.72,16.13-5.41s-.4,9.83-1,12.13-6.41,15.73-7.92,22.24-6.21,23.65,4,39.28c0,0,26.05-7.21,32.77-32.26,0,0,5.41-19.84-6.62-38.08M174.59,33.51a17.22,17.22,0,0,1,1.1,3.41l-7.14,1.88-.13-1.88Zm-6.44,9.62,7.92-3.76a26.69,26.69,0,0,1,1,4.41l-9,2.1Zm-3.23,9.77V50.24l12.4-4.56s.5,4.16.47,4.91Z"></path><path class="cls-2" d="M172.66,125.71l-.09-.14c-9.8-15-5.92-31.46-4.27-38.49l.23-1c1-4.25,3.76-11.36,5.79-16.55,1.08-2.74,1.92-4.9,2.13-5.7.53-2,.9-10,1-11.75l-15.65,5.25.26,3.29,11-1.77-14.32,6,.92,4.32,10.67-1.58-13.39,5.08,1.21,5.5L164.34,77l-8.74,4.25,2.1,7.11L155,89.87l3.38,7.48-1.79,1.49,4.2,7.6-1.29,1.39,2.64,3.92v.07a21.89,21.89,0,0,0,.4,3.56c.39,2,5.23,9.56,5.28,9.64l.23.35h-.42c-3.9,0-7.85-2.54-10.49-4.66a38.5,38.5,0,0,1-4.81-4.64c-10.41-12.47-13-22.3-11.28-42,1.7-18.93,14.11-31.39,19.41-36.71l1-1c4.61-4.72,17.81-6.7,18.37-6.78l.13,0,6.09,7.92c6.5,6.79,12.89,17.3,13,17.55C211,73.09,205.8,93,205.74,93.24c-6.67,24.89-32.66,32.35-32.92,32.42Zm5.25-74.23,0,.32c0,.41-.4,9.88-1,12.18-.22.82-1.07,3-2.14,5.74C172.72,74.9,170,82,169,86.21c-.07.31-.15.63-.23,1-1.63,7-5.46,23.2,4.12,38,2.18-.66,26.12-8.44,32.45-32.06.05-.2,5.24-20-6.59-37.89h0c-.07-.11-6.48-10.68-13-17.5L179.78,30c-1.41.23-13.72,2.27-18,6.63l-1,1c-5.27,5.28-17.6,17.66-19.28,36.43-1.76,19.61.86,29.36,11.17,41.72.08.09,7.44,8.79,14.54,9.13-1-1.56-4.75-7.56-5.11-9.44a22.68,22.68,0,0,1-.41-3.58l-2.77-4.1,1.32-1.42L156,98.74l1.81-1.52-3.42-7.55,2.73-1.51L155.05,81l6.08-3-3.37.63-1.4-6.32,9.86-3.73-7,1-1.09-5.1,11.13-4.64-7.67,1.24-.33-4.13Zm-13.22,1.69V50.09l12.82-4.72,0,.29c0,.17.51,4.18.48,4.94v.18Zm.45-2.77v2.23l12.43-2.23c0-.88-.34-3.53-.44-4.41Zm2.73-4.23.06-3.18.12-.06,8.16-3.88.07.25a25.85,25.85,0,0,1,1,4.49V44Zm.5-2.9,0,2.33,8.53-2a27.63,27.63,0,0,0-.93-3.91Zm0-4.19-.15-2.29,6.51-3.6.1.23a17.93,17.93,0,0,1,1.12,3.49v.18Zm.32-2,.1,1.47,6.69-1.76a18.15,18.15,0,0,0-1-2.92Z"></path><path class="cls-2" d="M175.69,36.92l-7.14,1.88-.13-1.88,6.17-3.41a17,17,0,0,1,1.1,3.41"></path><path class="cls-2" d="M177.09,43.78l-9,2.1.05-2.75,7.92-3.76a26.69,26.69,0,0,1,1,4.41"></path><path class="cls-2" d="M177.79,50.59,164.92,52.9V50.24l12.4-4.56s.5,4.16.47,4.91"></path><path class="cls-2" d="M29.52,238.5q4.71-.27,6.09-1.48c.92-.8,1.38-2.68,1.38-5.61V196.3q0-4.35-1.38-5.61c-.92-.83-3-1.33-6.09-1.48v-1.46H51.38q9.36,0,14.87,3t5.5,10.49q0,5.59-3.85,8.49a18.17,18.17,0,0,1-6.52,2.74,23.16,23.16,0,0,1,9.19,4.37,10.38,10.38,0,0,1,3.81,8.57q0,9.24-8.45,12.7A29.17,29.17,0,0,1,55,240H29.52Zm29.35-28.64q5-2.31,5-8.3,0-7.06-5.71-9.54-3.16-1.35-9.61-1.35a6.33,6.33,0,0,0-3,.43c-.38.28-.57,1.05-.57,2.32v17.83l7.43-.11a16.45,16.45,0,0,0,6.52-1.28m2.51,24.9q4-2.35,4-9t-4.72-9.05a26.28,26.28,0,0,0-12.05-2.43H46.39c-.32,0-.81,0-1.47,0v19.65q0,2.06,1.14,2.64c.77.4,2.53.6,5.3.6a19.6,19.6,0,0,0,10-2.35"></path><path class="cls-2" d="M81.47,238.5q4.26-.47,5.56-1.56c.86-.72,1.29-2.57,1.29-5.53V196.3c0-2.88-.41-4.73-1.25-5.55s-2.71-1.33-5.6-1.54v-1.46h21q10.64,0,18,3.54,13.26,6.36,13.26,22.74a27.06,27.06,0,0,1-2.38,11.21,23,23,0,0,1-7.19,9,24.33,24.33,0,0,1-6.32,3.51A42.29,42.29,0,0,1,103.15,240H81.47Zm15.71-2.08a8,8,0,0,0,3.87.61q9.15,0,15.06-3.66,9.06-5.62,9.06-19.25,0-12.13-7.46-18.28-6.4-5.24-17-5.24a7.48,7.48,0,0,0-3.57.58c-.62.38-.93,1.23-.93,2.54v40.15a2.89,2.89,0,0,0,.93,2.55"></path><path class="cls-2" d="M159.78,187.75v1.46c-3,.21-4.94.71-5.83,1.52s-1.34,2.67-1.34,5.57v25.24q0,6.21,1.68,9.67,3.12,6.33,11.85,6.32,9.57,0,12.84-6.47,1.83-3.62,1.83-11.18V199.34q0-6.43-1.52-8.07t-5.79-2.06v-1.46h18.06v1.46q-4.53.49-5.93,2.22c-.92,1.14-1.39,3.78-1.39,7.91v20.54q0,8.18-2.48,12.76-4.56,8.45-17.37,8.44-12.66,0-17.23-8.32-2.47-4.47-2.47-11.8V196.3q0-4.32-1.32-5.53c-.87-.81-2.79-1.33-5.73-1.56v-1.46Z"></path><rect class="cls-2" x="215.49" y="219.69" width="19.28" height="4.93"></rect><path class="cls-2" d="M295.52,188.09a41.33,41.33,0,0,0,5,1.27,3.9,3.9,0,0,0,2.09-.61,3.27,3.27,0,0,0,1.38-1.93h1.64l.72,17.73h-1.79a25.62,25.62,0,0,0-4.08-8.52,15.6,15.6,0,0,0-12.92-6.09,16.34,16.34,0,0,0-13.39,6.55q-5.21,6.56-5.2,18,0,10.56,5.46,16.86a17.57,17.57,0,0,0,13.86,6.3,22,22,0,0,0,11.16-2.93,34,34,0,0,0,6.44-5l1.45,1.46a26.22,26.22,0,0,1-6.44,5.82,25.64,25.64,0,0,1-14.21,4.24q-12.58,0-20-8.13-6.82-7.51-6.82-18.77,0-11.52,7.2-19.34,7.57-8.21,19.74-8.21a31.57,31.57,0,0,1,8.69,1.27"></path><path class="cls-2" d="M311.25,238.5q4.77-.34,6.18-1.44t1.41-5.65V196.3q0-4.35-1.41-5.61c-.94-.83-3-1.33-6.18-1.48v-1.46h23.1v1.46c-3.18.15-5.24.65-6.18,1.48s-1.4,2.71-1.4,5.61v35.11c0,3,.46,4.92,1.4,5.65s3,1.21,6.18,1.44V240h-23.1Z"></path><path class="cls-2" d="M88.2,272.77a1.82,1.82,0,0,0,.83-.22,1.84,1.84,0,0,0,.57-1l2.1-7.46c.07-.3.13-.52.15-.64a1.57,1.57,0,0,0,.05-.37.61.61,0,0,0-.29-.57,2.38,2.38,0,0,0-1-.18V262h4.66v.27a2.65,2.65,0,0,0-1,.23,1.53,1.53,0,0,0-.73,1L91.42,271l-.16.65s0,.06,0,.1v.1a.42.42,0,0,0,.13.33.82.82,0,0,0,.42.17,4.35,4.35,0,0,0,.64.06h.81A6,6,0,0,0,95.9,272a4.2,4.2,0,0,0,1.67-2.05l.33.1-1,3H88.2Z"></path><path class="cls-2" d="M97.4,272.77a1.75,1.75,0,0,0,.9-.52,17.4,17.4,0,0,0,1.31-2l5-8.43H105l1.64,9.55a2.48,2.48,0,0,0,.38,1.14,1.49,1.49,0,0,0,.93.3V273h-4.22v-.27a3.76,3.76,0,0,0,1-.18.66.66,0,0,0,.35-.65v-.26q0-.14,0-.24l-.37-2.21H101l-1.08,1.9a3.71,3.71,0,0,0-.19.4,2,2,0,0,0-.14.64.48.48,0,0,0,.22.45,1.73,1.73,0,0,0,.79.15V273H97.4Zm7.15-4.14-.72-4.37-2.48,4.37Z"></path><path class="cls-2" d="M112.11,272.77a1.3,1.3,0,0,0,1.4-1.25l2.1-7.46.12-.44a3.32,3.32,0,0,0,.08-.56.6.6,0,0,0-.28-.58,2.47,2.47,0,0,0-1-.18V262h4.41a6.26,6.26,0,0,1,2,.29,2.17,2.17,0,0,1,1.45,2.16,2.25,2.25,0,0,1-1.18,2,5.76,5.76,0,0,1-1.79.63,4.25,4.25,0,0,1,1.33.73,2.49,2.49,0,0,1,.79,1.94,2.79,2.79,0,0,1-1.24,2.32,5.56,5.56,0,0,1-3.4.93h-4.73Zm6.73-1.14a3,3,0,0,0,.78-2.1,1.76,1.76,0,0,0-.91-1.79,7.3,7.3,0,0,0-2.35-.28l-1.08,3.82c0,.1,0,.19-.07.28a1.21,1.21,0,0,0,0,.25.59.59,0,0,0,.43.6,2.32,2.32,0,0,0,.76.09,3.17,3.17,0,0,0,2.47-.87m-1.58-4.71a4.79,4.79,0,0,0,2.06-.36,2.32,2.32,0,0,0,1.27-2.3,1.53,1.53,0,0,0-.54-1.33,2.27,2.27,0,0,0-1.41-.39,1.81,1.81,0,0,0-.75.1.57.57,0,0,0-.27.36l-1.11,3.91Z"></path><path class="cls-2" d="M122.25,272.77a1.75,1.75,0,0,0,.9-.52,17.4,17.4,0,0,0,1.31-2l5-8.43h.38l1.64,9.55a2.48,2.48,0,0,0,.38,1.14,1.48,1.48,0,0,0,.92.3V273h-4.21v-.27a3.75,3.75,0,0,0,1-.18.65.65,0,0,0,.36-.65,2.35,2.35,0,0,0,0-.26,1.66,1.66,0,0,0,0-.24l-.37-2.21h-3.65l-1.07,1.9a2.46,2.46,0,0,0-.19.4,1.77,1.77,0,0,0-.14.64.48.48,0,0,0,.22.45,1.7,1.7,0,0,0,.79.15V273h-3.21Zm7.15-4.14-.72-4.37-2.48,4.37Z"></path><path class="cls-2" d="M132.79,272.77a1.52,1.52,0,0,0,1-.52,7.61,7.61,0,0,0,.75-2l2-7.07s0-.13-.14-.29a1.22,1.22,0,0,0-.31-.35,1.38,1.38,0,0,0-.37-.16l-.6-.1V262h2.75l3.5,8.34h.06l1.7-6.44c.05-.19.09-.36.12-.52a1.77,1.77,0,0,0,0-.34.64.64,0,0,0-.4-.64,2.84,2.84,0,0,0-.81-.14V262h3.41v.27a1.68,1.68,0,0,0-1.05.54,7.9,7.9,0,0,0-.73,2l-2,7.21c-.07.24-.11.41-.14.51l-.21.8H141l-3.88-9.2H137l-1.9,7c0,.12-.07.28-.1.45a2.08,2.08,0,0,0-.06.42.64.64,0,0,0,.44.64,2.19,2.19,0,0,0,.77.13V273h-3.4Z"></path><path class="cls-2" d="M148.37,274.29h.4a9.35,9.35,0,0,1,2,.34,9.56,9.56,0,0,0,2.09.35,3.64,3.64,0,0,0,1.81-.42,4.72,4.72,0,0,0,1-.84l.26.17a5.44,5.44,0,0,1-2.47,1.93,4.94,4.94,0,0,1-1.72.32,10.27,10.27,0,0,1-2.18-.37,10.43,10.43,0,0,0-2-.37,3.69,3.69,0,0,0-1.87.54l-.18-.27c.65-.45,1.25-.91,1.8-1.36.35-.29.75-.64,1.23-1.06a3.28,3.28,0,0,1-2.14-1.16,4,4,0,0,1-.91-2.75,7.44,7.44,0,0,1,2.19-5.11,6.44,6.44,0,0,1,4.76-2.4,3.85,3.85,0,0,1,2.91,1.15,3.92,3.92,0,0,1,1.11,2.83,7.38,7.38,0,0,1-2.29,5.34,6.48,6.48,0,0,1-4.88,2.18Zm5.09-4.58a10,10,0,0,0,1.26-4.54,3.21,3.21,0,0,0-.57-2,2,2,0,0,0-1.71-.73q-2.2,0-3.76,2.91a10,10,0,0,0-1.31,4.72,3,3,0,0,0,.59,2,2.07,2.07,0,0,0,1.66.69q2.28,0,3.84-3"></path><path class="cls-2" d="M160.18,264.06c.06-.21.1-.38.13-.51a2.42,2.42,0,0,0,.07-.54.53.53,0,0,0-.32-.55,3.84,3.84,0,0,0-1-.16V262h4.68v.27a2.66,2.66,0,0,0-1,.23,1.59,1.59,0,0,0-.73,1l-1.28,4.5c-.13.45-.24.87-.33,1.24a6.24,6.24,0,0,0-.22,1.32,1.82,1.82,0,0,0,1.1,1.79,2.77,2.77,0,0,0,1.2.27,3.16,3.16,0,0,0,2.37-.9,6.26,6.26,0,0,0,1.37-2.79l1.33-5c.06-.22.1-.4.12-.52a1.47,1.47,0,0,0,0-.33.66.66,0,0,0-.4-.65,2.82,2.82,0,0,0-.8-.14V262h3.4v.27a1.64,1.64,0,0,0-1,.53,8.27,8.27,0,0,0-.75,2l-1.19,4.25a6.72,6.72,0,0,1-1.66,3.33,4.29,4.29,0,0,1-3,1,4.14,4.14,0,0,1-2.58-.81,2.5,2.5,0,0,1-1.07-2.07,5.67,5.67,0,0,1,.15-1.12c.09-.47.22-1,.39-1.6Z"></path><path class="cls-2" d="M169.18,272.77a1.82,1.82,0,0,0,.83-.22,1.84,1.84,0,0,0,.57-1l2.1-7.46c.06-.25.12-.45.15-.61a1.83,1.83,0,0,0,.06-.42.56.56,0,0,0-.31-.55,2.43,2.43,0,0,0-1-.18V262h8.5l-.53,2.57-.35,0a4,4,0,0,0,0-.48c0-.15,0-.2,0-.16a1.06,1.06,0,0,0-.59-1.1,7.93,7.93,0,0,0-2.53-.26,4,4,0,0,0-1.1.09.5.5,0,0,0-.31.35L173.57,267a10.51,10.51,0,0,0,2.71-.28,2.7,2.7,0,0,0,1-1.36l.32.08-1.17,3.9-.33-.07c.05-.33.09-.53.1-.6a1.93,1.93,0,0,0,0-.24.68.68,0,0,0-.38-.7,4.15,4.15,0,0,0-1.42-.16h-1l-1.06,3.76a1.57,1.57,0,0,0-.08.33,1.45,1.45,0,0,0,0,.3.5.5,0,0,0,.14.4,1.62,1.62,0,0,0,1,.23,8,8,0,0,0,3.28-.49,5.53,5.53,0,0,0,2-1.88l.28.14L177.86,273h-8.68Z"></path><path class="cls-2" d="M183.78,272.77a1.77,1.77,0,0,0,.82-.22,1.84,1.84,0,0,0,.58-1l2.09-7.46.15-.58a2.47,2.47,0,0,0,.05-.43.6.6,0,0,0-.28-.57,2.56,2.56,0,0,0-1.05-.18V262h4.42a9.18,9.18,0,0,1,2.15.22,4,4,0,0,1,1.72.88,4.45,4.45,0,0,1,.93,1.17,4.75,4.75,0,0,1,.56,2.3,5.86,5.86,0,0,1-2,4.4,7.91,7.91,0,0,1-5.64,2h-4.52Zm9.44-3.3a7.15,7.15,0,0,0,.78-3.2,4.37,4.37,0,0,0-.79-2.66,3.27,3.27,0,0,0-2.83-1.08,2.16,2.16,0,0,0-.8.11.57.57,0,0,0-.31.38l-2.33,8.26a2.65,2.65,0,0,0-.09.37,1.69,1.69,0,0,0,0,.23.52.52,0,0,0,.22.49,2.1,2.1,0,0,0,.93.13,5.36,5.36,0,0,0,5.23-3"></path><path class="cls-2" d="M196.23,272.77a1.82,1.82,0,0,0,.83-.22,1.84,1.84,0,0,0,.57-1l2.1-7.46c.06-.25.12-.45.15-.61a1.83,1.83,0,0,0,.06-.42.56.56,0,0,0-.31-.55,2.43,2.43,0,0,0-1-.18V262h8.5l-.53,2.57-.35,0a4,4,0,0,0,0-.48c0-.15,0-.2,0-.16a1,1,0,0,0-.6-1.1,7.81,7.81,0,0,0-2.52-.26,4,4,0,0,0-1.1.09.48.48,0,0,0-.31.35L200.62,267a10.51,10.51,0,0,0,2.71-.28,2.7,2.7,0,0,0,1-1.36l.32.08-1.17,3.9-.33-.07c0-.33.09-.53.1-.6a1.93,1.93,0,0,0,0-.24.68.68,0,0,0-.38-.7,4.15,4.15,0,0,0-1.42-.16h-1l-1.07,3.76a2.46,2.46,0,0,0-.07.33,1.45,1.45,0,0,0,0,.3.5.5,0,0,0,.14.4,1.62,1.62,0,0,0,1,.23,8,8,0,0,0,3.28-.49,5.53,5.53,0,0,0,2-1.88l.28.14L204.91,273h-8.68Z"></path><path class="cls-2" d="M210.82,272.77a1.82,1.82,0,0,0,.83-.22,1.84,1.84,0,0,0,.58-1l2.09-7.46c.08-.3.13-.52.16-.64a1.55,1.55,0,0,0,0-.37.61.61,0,0,0-.29-.57,2.38,2.38,0,0,0-1-.18V262h4.66v.27a2.65,2.65,0,0,0-1,.23,1.56,1.56,0,0,0-.73,1L214,271l-.15.65s0,.06,0,.1v.1a.42.42,0,0,0,.13.33.82.82,0,0,0,.42.17,4.5,4.5,0,0,0,.64.06h.81a6,6,0,0,0,2.66-.46,4.19,4.19,0,0,0,1.66-2.05l.34.1-1,3h-8.72Z"></path><path class="cls-2" d="M223.75,262a1,1,0,0,1,.13.57v.13s0,.15,0,.35l-.41,3.63h-.3l-.43-3.36c0-.16,0-.3,0-.42s0-.26,0-.4a.65.65,0,0,1,.2-.54.75.75,0,0,1,.42-.14.6.6,0,0,1,.5.18"></path><path class="cls-2" d="M227.44,264.06c.06-.21.1-.38.13-.51a3.19,3.19,0,0,0,.07-.54.53.53,0,0,0-.32-.55,3.84,3.84,0,0,0-1-.16V262H231v.27a2.73,2.73,0,0,0-1,.23,1.55,1.55,0,0,0-.72,1l-1.28,4.5c-.13.45-.24.87-.33,1.24a6.44,6.44,0,0,0-.23,1.32,1.83,1.83,0,0,0,1.1,1.79,2.84,2.84,0,0,0,1.2.27,3.14,3.14,0,0,0,2.37-.9,6.37,6.37,0,0,0,1.38-2.79l1.33-5c.06-.22.1-.4.12-.52a2.23,2.23,0,0,0,0-.33.64.64,0,0,0-.4-.65,2.68,2.68,0,0,0-.8-.14V262h3.41v.27a1.64,1.64,0,0,0-1,.53,8.27,8.27,0,0,0-.75,2l-1.19,4.25a6.81,6.81,0,0,1-1.66,3.33,4.31,4.31,0,0,1-3,1,4.15,4.15,0,0,1-2.59-.81,2.49,2.49,0,0,1-1.06-2.07,6.36,6.36,0,0,1,.14-1.12c.1-.47.23-1,.4-1.6Z"></path><path class="cls-2" d="M236.12,272.77a1.54,1.54,0,0,0,1-.52,7.35,7.35,0,0,0,.74-2l2-7.07s0-.13-.14-.29a1.09,1.09,0,0,0-.31-.35,1.25,1.25,0,0,0-.37-.16l-.6-.1V262h2.75l3.51,8.34h.06l1.7-6.44a4.06,4.06,0,0,0,.11-.52,1.77,1.77,0,0,0,0-.34.64.64,0,0,0-.4-.64,2.84,2.84,0,0,0-.81-.14V262h3.41v.27a1.68,1.68,0,0,0-1.05.54,8.34,8.34,0,0,0-.73,2L245,272c-.06.24-.11.41-.14.51l-.21.8h-.32l-3.88-9.2h-.09l-1.89,7c0,.12-.07.28-.11.45a1.93,1.93,0,0,0-.05.42.63.63,0,0,0,.43.64,2.31,2.31,0,0,0,.78.13V273h-3.41Z"></path><path class="cls-2" d="M247.72,272.77a1.86,1.86,0,0,0,.83-.22,1.84,1.84,0,0,0,.57-1l2.09-7.46c.08-.3.14-.52.16-.64a1.55,1.55,0,0,0,0-.37.57.57,0,0,0-.26-.55,2.42,2.42,0,0,0-1-.2V262h4.24v.27a2.06,2.06,0,0,0-.93.29,1.9,1.9,0,0,0-.47,1l-2.1,7.46c-.07.27-.12.48-.15.65a2.57,2.57,0,0,0,0,.39.54.54,0,0,0,.3.55,2.3,2.3,0,0,0,.87.17V273h-4.19Z"></path><path class="cls-2" d="M264.42,263a4,4,0,0,1,1.1,2.83,7.4,7.4,0,0,1-2.22,5.26,6.61,6.61,0,0,1-4.84,2.27,3.94,3.94,0,0,1-2.8-1,3.85,3.85,0,0,1-1.11-3,7.46,7.46,0,0,1,2.2-5.11,6.42,6.42,0,0,1,4.75-2.4,3.87,3.87,0,0,1,2.92,1.15m-1.94,6.74a10,10,0,0,0,1.26-4.54,3.21,3.21,0,0,0-.57-2,2,2,0,0,0-1.71-.73q-2.2,0-3.75,2.91a9.9,9.9,0,0,0-1.31,4.72,3,3,0,0,0,.59,2,2.08,2.08,0,0,0,1.65.68q2.28,0,3.84-3"></path><path class="cls-2" d="M265.55,272.77a1.52,1.52,0,0,0,1-.52,7.25,7.25,0,0,0,.75-2l2-7.07s0-.13-.14-.29a1.09,1.09,0,0,0-.31-.35,1.38,1.38,0,0,0-.37-.16l-.6-.1V262h2.75l3.51,8.34h.05l1.7-6.44c.05-.19.09-.36.12-.52a1.77,1.77,0,0,0,0-.34.64.64,0,0,0-.4-.64,2.84,2.84,0,0,0-.81-.14V262h3.41v.27a1.68,1.68,0,0,0-1.05.54,8.34,8.34,0,0,0-.73,2l-2,7.21c-.07.24-.11.41-.14.51l-.21.8h-.32l-3.88-9.2h-.09l-1.9,7c0,.12-.07.28-.1.45a2.08,2.08,0,0,0-.06.42.64.64,0,0,0,.44.64,2.24,2.24,0,0,0,.77.13V273h-3.4Z"></path><rect class="cls-1" x="26.97" y="248.19" width="308.42" height="2.41"></rect><rect class="cls-1" x="26.97" y="174.54" width="308.42" height="2.41"></rect></svg>